<?xml version="1.0" encoding="UTF-8" standalone="no"?>
<svg
   viewBox="0,0,256,256"
   width="50px"
   height="50px"
   fill-rule="nonzero"
   version="1.1"
   id="svg7727"
   sodipodi:docname="dx-black.svg"
   inkscape:version="1.2.1 (9c6d41e410, 2022-07-14)"
   xmlns:inkscape="http://www.inkscape.org/namespaces/inkscape"
   xmlns:sodipodi="http://sodipodi.sourceforge.net/DTD/sodipodi-0.dtd"
   xmlns="http://www.w3.org/2000/svg"
   xmlns:svg="http://www.w3.org/2000/svg">
  <defs
     id="defs7731" />
  <sodipodi:namedview
     id="namedview7729"
     pagecolor="#ffffff"
     bordercolor="#000000"
     borderopacity="0.25"
     inkscape:showpageshadow="2"
     inkscape:pageopacity="0.0"
     inkscape:pagecheckerboard="0"
     inkscape:deskcolor="#d1d1d1"
     showgrid="false"
     inkscape:zoom="6.57"
     inkscape:cx="10.121766"
     inkscape:cy="15.2207"
     inkscape:window-width="1600"
     inkscape:window-height="837"
     inkscape:window-x="-8"
     inkscape:window-y="-8"
     inkscape:window-maximized="1"
     inkscape:current-layer="svg7727" />
  <g
     fill-opacity="0"
     fill="#dddddd"
     fill-rule="nonzero"
     stroke="none"
     stroke-width="1"
     stroke-linecap="butt"
     stroke-linejoin="miter"
     stroke-miterlimit="10"
     stroke-dasharray=""
     stroke-dashoffset="0"
     font-family="none"
     font-weight="none"
     font-size="none"
     text-anchor="none"
     style="mix-blend-mode: normal"
     id="g7719">
    <path
       d="M0,256v-256h256v256z"
       id="bgRectangle" />
  </g>
  <g
     id="g9338"
     transform="translate(-10.24,-3.8964991)">
    <g
       fill="#000000"
       fill-rule="nonzero"
       stroke="none"
       stroke-width="1"
       stroke-linecap="butt"
       stroke-linejoin="miter"
       stroke-miterlimit="10"
       stroke-dasharray=""
       stroke-dashoffset="0"
       font-family="none"
       font-weight="none"
       font-size="none"
       text-anchor="none"
       style="mix-blend-mode:normal;fill:#ffffff;stroke:#000000;stroke-width:0.512;stroke-dasharray:none"
       id="g7725"
       transform="matrix(1.6515289,0,0,1.5520905,-73.055635,-69.921302)">
      <g
         transform="scale(5.12)"
         id="g7723"
         style="fill:#ffffff;stroke:#000000;stroke-width:0.1;stroke-dasharray:none">
        <path
           id="path8224"
           d="M 32.407839,15.765184 32.5,21.867188 v 0.0078 C 31.893001,20.564001 30.823124,20 29.703125,20 27.303127,20 25,22.372006 25,27.875 c 0,5.120995 1.856471,8.4375 4.480469,8.4375 1.630998,0 2.539531,-0.849501 3.019531,-1.9375 V 36 H 35 c -0.032,-0.895999 0,-2.319001 0,-3.375 L 34.90784,15.765184 Z m -2.161745,6.346144 c 1.183999,0 2.112234,1.413674 2.240234,3.013672 0.032,0.351 0,0.7435 0,1.0625 V 30.75 c 0,0 -0.029,0.587 -0.125,0.875 -0.543999,2.238998 -1.536688,2.638672 -2.304687,2.638672 -1.791999,0 -2.59375,-3.124675 -2.59375,-6.388672 0,-3.102997 0.735205,-5.763672 2.783203,-5.763672 z"
           style="fill:#ffffff;stroke:#000000;stroke-width:0.1;stroke-dasharray:none"
           sodipodi:nodetypes="cccssscccsccscsccsss" />
        <path
           d="m 26.237727,36.008598 h -2.070091 l -3.513357,-6.729451 -3.524951,6.729451 h -2.040281 l 4.539295,-8.694381 -4.539295,-8.69438 h 2.040281 l 3.524951,6.72945 3.513357,-6.72945 h 2.070091 l -4.554199,8.69438 z"
           id="path8222"
           style="fill:#ffffff;stroke:#000000;stroke-width:0.0828036;stroke-dasharray:none" />
      </g>
    </g>
  </g>
</svg>
