<?xml version="1.0" encoding="UTF-8" standalone="no"?>
<svg
   viewBox="0 0 24 24"
   width="24px"
   height="24px"
   version="1.1"
   id="svg4"
   sodipodi:docname="icons8-adobe-photoshop-24.svg"
   inkscape:version="1.2.1 (9c6d41e410, 2022-07-14)"
   xmlns:inkscape="http://www.inkscape.org/namespaces/inkscape"
   xmlns:sodipodi="http://sodipodi.sourceforge.net/DTD/sodipodi-0.dtd"
   xmlns="http://www.w3.org/2000/svg"
   xmlns:svg="http://www.w3.org/2000/svg">
  <defs
     id="defs8" />
  <sodipodi:namedview
     id="namedview6"
     pagecolor="#ffffff"
     bordercolor="#000000"
     borderopacity="0.25"
     inkscape:showpageshadow="2"
     inkscape:pageopacity="0.0"
     inkscape:pagecheckerboard="0"
     inkscape:deskcolor="#d1d1d1"
     showgrid="false"
     inkscape:zoom="17.265862"
     inkscape:cx="6.2840767"
     inkscape:cy="11.438757"
     inkscape:window-width="1350"
     inkscape:window-height="700"
     inkscape:window-x="113"
     inkscape:window-y="81"
     inkscape:window-maximized="0"
     inkscape:current-layer="svg4"
     showborder="false" />
  <g
     id="g957"
     transform="matrix(1.6433167,0,0,1.6919,-7.165256,-8.2516336)"
     style="fill:#ffffff;stroke:#000000;stroke-width:0.0398808;stroke-dasharray:none">
    <path
       id="path902"
       style="opacity:1;fill:#ffffff;fill-opacity:1;stroke:#000000;stroke-width:0.0398808;stroke-dasharray:none"
       d="m 14.366269,9.953125 c 0.826,0 1.423437,0.292141 1.773437,0.744141 0.352,0.454 0.02322,1.115234 -0.550781,1.115234 h -0.0957 c -0.27,0 -0.537812,-0.147391 -0.632813,-0.400391 -0.083,-0.22 -0.24614,-0.34375 -0.49414,-0.34375 -0.279,0 -0.558594,0.186594 -0.558594,0.558594 0,0.93 2.697266,0.650266 2.697266,2.697266 0,1.397 -1.394672,1.675781 -2.138672,1.675781 -0.885,0 -1.506234,-0.362563 -1.865234,-0.851562 -0.336001,-0.457001 -0.0084,-1.101563 0.558593,-1.101563 0.268,0 0.528907,0.143578 0.628907,0.392578 0.153999,0.386 0.531734,0.44336 0.677734,0.443359 0.372,0 0.650391,-0.186593 0.65039,-0.558593 0,-0.837 -2.699218,-0.742516 -2.699218,-2.603516 0,-1.395 1.303828,-1.767578 2.048828,-1.767578 z M 7.7285156,8 C 7.2665161,8 6.890625,8.3758911 6.890625,8.8378906 v 6.2304684 c 0,0.462 0.3758911,0.837891 0.8378906,0.837891 0.4619996,0 0.8359375,-0.375891 0.8359375,-0.837891 v -1.953125 h 1.1171875 c 1.2099994,0 2.5117184,-0.649767 2.5117184,-2.509765 C 12.193359,10.140469 11.913889,8 9.5878906,8 Z m 0.8359375,1.3027344 h 1.1171875 c 0.6519994,0 0.9306874,0.6507347 0.9296874,1.3027346 0,0.650999 -0.185688,1.208984 -0.9296874,1.208984 H 8.5644531 Z" />
  </g>
</svg>
