<?xml version="1.0" encoding="UTF-8" standalone="no"?>
<svg
   viewBox="0,0,256,256"
   width="50px"
   height="50px"
   fill-rule="nonzero"
   version="1.1"
   id="svg4991"
   sodipodi:docname="illustrator-black.svg"
   inkscape:version="1.2.1 (9c6d41e410, 2022-07-14)"
   xmlns:inkscape="http://www.inkscape.org/namespaces/inkscape"
   xmlns:sodipodi="http://sodipodi.sourceforge.net/DTD/sodipodi-0.dtd"
   xmlns="http://www.w3.org/2000/svg"
   xmlns:svg="http://www.w3.org/2000/svg">
  <defs
     id="defs4995" />
  <sodipodi:namedview
     id="namedview4993"
     pagecolor="#ffffff"
     bordercolor="#000000"
     borderopacity="0.25"
     inkscape:showpageshadow="2"
     inkscape:pageopacity="0.0"
     inkscape:pagecheckerboard="0"
     inkscape:deskcolor="#d1d1d1"
     showgrid="false"
     showborder="false"
     inkscape:zoom="13.14"
     inkscape:cx="20.966514"
     inkscape:cy="25.038052"
     inkscape:window-width="1600"
     inkscape:window-height="837"
     inkscape:window-x="-8"
     inkscape:window-y="-8"
     inkscape:window-maximized="1"
     inkscape:current-layer="svg4991" />
  <g
     fill="#000000"
     fill-rule="nonzero"
     stroke="none"
     stroke-width="1"
     stroke-linecap="butt"
     stroke-linejoin="miter"
     stroke-miterlimit="10"
     stroke-dasharray=""
     stroke-dashoffset="0"
     font-family="none"
     font-weight="none"
     font-size="none"
     text-anchor="none"
     style="mix-blend-mode:normal;fill:#ffffff;stroke:#000000;stroke-width:0.512;stroke-dasharray:none"
     id="g4989"
     transform="matrix(1.6258693,0,0,1.2672386,-69.732892,-26.060487)">
    <g
       transform="scale(5.12)"
       id="g4987"
       style="fill:#ffffff;stroke:#000000;stroke-width:0.1;stroke-dasharray:none">
      <path
         id="path6601"
         style="fill:#ffffff;stroke:#000000;stroke-width:0.1;stroke-dasharray:none"
         d="m 30.270212,14.000744 c -0.819998,0 -1.479977,0.629741 -1.479977,1.559739 0,0.939998 0.628746,1.570529 1.448744,1.570529 h 0.03123 c 0.93,0 1.51962,-0.630531 1.51962,-1.570529 0,-0.929998 -0.58962,-1.559739 -1.51962,-1.559739 z m -1.230111,4.999798 v 16.999931 h 2.499865 V 19.000542 Z" />
      <path
         style="fill:#ffffff;stroke:#000000;stroke-width:0.1;stroke-dasharray:none"
         d="m 19.92959,14.000744 -4.930055,21.999729 h 2.40136 l 1.419913,-6.430074 h 4.797914 l 1.391083,6.430074 h 2.439801 L 22.65049,14.000744 Z m 1.300987,2.438249 h 0.0901 c 0.26,1.599997 0.548526,3.390445 0.868526,4.930442 l 1.131606,5.630168 h -4.09036 l 1.099171,-5.599343 c 0.32,-1.469997 0.640961,-3.331271 0.900961,-4.961267 z"
         id="path5481" />
    </g>
  </g>
</svg>
